<mxfile>
    <diagram id="OMYAt_fgqAl4ORVPHxR6" name="Page-1">
        <mxGraphModel dx="1853" dy="2334" grid="1" gridSize="10" guides="1" tooltips="1" connect="1" arrows="1" fold="1" page="1" pageScale="1" pageWidth="850" pageHeight="1100" math="0" shadow="0">
            <root>
                <mxCell id="0"/>
                <mxCell id="1" parent="0"/>
                <mxCell id="280" value="" style="rounded=0;whiteSpace=wrap;html=1;strokeColor=#242424;fillColor=#383838;" vertex="1" parent="1">
                    <mxGeometry y="-30" width="850" height="1130" as="geometry"/>
                </mxCell>
                <mxCell id="220" value="" style="rounded=0;whiteSpace=wrap;html=1;rotation=90;fillColor=#333333;strokeColor=#666666;" vertex="1" parent="1">
                    <mxGeometry x="-40" y="90" width="280" height="140" as="geometry"/>
                </mxCell>
                <mxCell id="267" value="" style="rounded=0;whiteSpace=wrap;html=1;rotation=90;fillColor=#333333;strokeColor=#666666;" vertex="1" parent="1">
                    <mxGeometry x="445" y="775" width="280" height="140" as="geometry"/>
                </mxCell>
                <mxCell id="268" value="" style="rounded=0;whiteSpace=wrap;html=1;rotation=90;fillColor=#333333;strokeColor=#666666;" vertex="1" parent="1">
                    <mxGeometry x="285" y="775" width="280" height="140" as="geometry"/>
                </mxCell>
                <mxCell id="269" value="&lt;font style=&quot;font-size: 18px&quot;&gt;A&lt;/font&gt;" style="text;html=1;fillColor=none;align=center;verticalAlign=middle;whiteSpace=wrap;rounded=0;strokeColor=#f0f0f0;fontColor=#FFFFFF;" vertex="1" parent="1">
                    <mxGeometry x="365" y="955" width="40" height="20" as="geometry"/>
                </mxCell>
                <mxCell id="270" value="&lt;span style=&quot;font-size: 18px&quot;&gt;B&lt;/span&gt;" style="text;html=1;fillColor=none;align=center;verticalAlign=middle;whiteSpace=wrap;rounded=0;strokeColor=#f0f0f0;fontColor=#FFFFFF;" vertex="1" parent="1">
                    <mxGeometry x="445" y="955" width="40" height="20" as="geometry"/>
                </mxCell>
                <mxCell id="271" value="&lt;font style=&quot;font-size: 18px&quot;&gt;A&lt;/font&gt;" style="text;html=1;fillColor=none;align=center;verticalAlign=middle;whiteSpace=wrap;rounded=0;strokeColor=#f0f0f0;fontColor=#FFFFFF;" vertex="1" parent="1">
                    <mxGeometry x="525" y="955" width="40" height="20" as="geometry"/>
                </mxCell>
                <mxCell id="272" value="&lt;span style=&quot;font-size: 18px&quot;&gt;B&lt;/span&gt;" style="text;html=1;fillColor=none;align=center;verticalAlign=middle;whiteSpace=wrap;rounded=0;strokeColor=#f0f0f0;fontColor=#FFFFFF;" vertex="1" parent="1">
                    <mxGeometry x="605" y="955" width="40" height="20" as="geometry"/>
                </mxCell>
                <mxCell id="225" value="" style="rounded=0;whiteSpace=wrap;html=1;rotation=90;fillColor=#333333;strokeColor=#666666;" vertex="1" parent="1">
                    <mxGeometry x="125" y="775" width="280" height="140" as="geometry"/>
                </mxCell>
                <mxCell id="226" value="" style="rounded=0;whiteSpace=wrap;html=1;rotation=90;fillColor=#333333;strokeColor=#666666;" vertex="1" parent="1">
                    <mxGeometry x="600" y="430" width="280" height="140" as="geometry"/>
                </mxCell>
                <mxCell id="227" value="" style="rounded=0;whiteSpace=wrap;html=1;rotation=90;fillColor=#333333;strokeColor=#666666;" vertex="1" parent="1">
                    <mxGeometry x="440" y="430" width="280" height="140" as="geometry"/>
                </mxCell>
                <mxCell id="228" value="" style="rounded=0;whiteSpace=wrap;html=1;rotation=90;fillColor=#333333;strokeColor=#666666;" vertex="1" parent="1">
                    <mxGeometry x="280" y="430" width="280" height="140" as="geometry"/>
                </mxCell>
                <mxCell id="229" value="" style="rounded=0;whiteSpace=wrap;html=1;rotation=90;fillColor=#333333;strokeColor=#666666;" vertex="1" parent="1">
                    <mxGeometry x="-40" y="430" width="280" height="140" as="geometry"/>
                </mxCell>
                <mxCell id="223" value="" style="rounded=0;whiteSpace=wrap;html=1;rotation=90;fillColor=#333333;strokeColor=#666666;" vertex="1" parent="1">
                    <mxGeometry x="600" y="90" width="280" height="140" as="geometry"/>
                </mxCell>
                <mxCell id="224" value="" style="rounded=0;whiteSpace=wrap;html=1;rotation=90;fillColor=#333333;strokeColor=#666666;" vertex="1" parent="1">
                    <mxGeometry x="440" y="90" width="280" height="140" as="geometry"/>
                </mxCell>
                <mxCell id="222" value="" style="rounded=0;whiteSpace=wrap;html=1;rotation=90;fillColor=#333333;strokeColor=#666666;" vertex="1" parent="1">
                    <mxGeometry x="280" y="90" width="280" height="140" as="geometry"/>
                </mxCell>
                <mxCell id="221" value="" style="rounded=0;whiteSpace=wrap;html=1;rotation=90;fillColor=#333333;strokeColor=#666666;" vertex="1" parent="1">
                    <mxGeometry x="120" y="90" width="280" height="140" as="geometry"/>
                </mxCell>
                <mxCell id="2" value="5" style="html=1;fillColor=#10739E;strokeColor=none;shadow=0;fontSize=17;fontColor=#FFFFFF;align=center;fontStyle=1;rounded=0;" vertex="1" parent="1">
                    <mxGeometry x="40" y="40" width="40" height="40" as="geometry"/>
                </mxCell>
                <mxCell id="4" value="4" style="html=1;fillColor=#F2931E;strokeColor=none;shadow=0;fontSize=17;fontColor=#FFFFFF;align=center;fontStyle=1;rounded=0;" vertex="1" parent="1">
                    <mxGeometry x="40" y="85" width="40" height="40" as="geometry"/>
                </mxCell>
                <mxCell id="10" value="3" style="html=1;fillColor=#12AAB5;strokeColor=none;shadow=0;fontSize=17;fontColor=#FFFFFF;align=center;fontStyle=1;rounded=0;" vertex="1" parent="1">
                    <mxGeometry x="40" y="220" width="40" height="40" as="geometry"/>
                </mxCell>
                <mxCell id="14" value="&lt;font style=&quot;font-size: 18px&quot;&gt;A&lt;/font&gt;" style="text;html=1;fillColor=none;align=center;verticalAlign=middle;whiteSpace=wrap;rounded=0;strokeColor=#f0f0f0;fontColor=#FFFFFF;" vertex="1" parent="1">
                    <mxGeometry x="40" y="270" width="40" height="20" as="geometry"/>
                </mxCell>
                <mxCell id="26" value="&lt;span style=&quot;font-size: 18px&quot;&gt;B&lt;/span&gt;" style="text;html=1;fillColor=none;align=center;verticalAlign=middle;whiteSpace=wrap;rounded=0;strokeColor=#f0f0f0;fontColor=#FFFFFF;" vertex="1" parent="1">
                    <mxGeometry x="120" y="270" width="40" height="20" as="geometry"/>
                </mxCell>
                <mxCell id="32" value="&lt;font style=&quot;font-size: 18px&quot;&gt;A&lt;/font&gt;" style="text;html=1;fillColor=none;align=center;verticalAlign=middle;whiteSpace=wrap;rounded=0;strokeColor=#f0f0f0;fontColor=#FFFFFF;" vertex="1" parent="1">
                    <mxGeometry x="200" y="270" width="40" height="20" as="geometry"/>
                </mxCell>
                <mxCell id="38" value="&lt;span style=&quot;font-size: 18px&quot;&gt;B&lt;/span&gt;" style="text;html=1;fillColor=none;align=center;verticalAlign=middle;whiteSpace=wrap;rounded=0;strokeColor=#f0f0f0;fontColor=#FFFFFF;" vertex="1" parent="1">
                    <mxGeometry x="280" y="270" width="40" height="20" as="geometry"/>
                </mxCell>
                <mxCell id="61" value="5" style="html=1;fillColor=#10739E;strokeColor=none;shadow=0;fontSize=17;fontColor=#FFFFFF;align=center;fontStyle=1;rounded=0;" vertex="1" parent="1">
                    <mxGeometry x="280" y="220" width="40" height="40" as="geometry"/>
                </mxCell>
                <mxCell id="62" value="4" style="html=1;fillColor=#F2931E;strokeColor=none;shadow=0;fontSize=17;fontColor=#FFFFFF;align=center;fontStyle=1;rounded=0;" vertex="1" parent="1">
                    <mxGeometry x="200" y="85" width="40" height="40" as="geometry"/>
                </mxCell>
                <mxCell id="63" value="1" style="html=1;fillColor=#AE4132;strokeColor=none;shadow=0;fontSize=17;fontColor=#FFFFFF;align=center;fontStyle=1;rounded=0;" vertex="1" parent="1">
                    <mxGeometry x="200" y="130" width="40" height="40" as="geometry"/>
                </mxCell>
                <mxCell id="64" value="2" style="html=1;fillColor=#23445D;strokeColor=none;shadow=0;fontSize=17;fontColor=#FFFFFF;align=center;fontStyle=1;rounded=0;" vertex="1" parent="1">
                    <mxGeometry x="200" y="175" width="40" height="40" as="geometry"/>
                </mxCell>
                <mxCell id="65" value="3" style="html=1;fillColor=#12AAB5;strokeColor=none;shadow=0;fontSize=17;fontColor=#FFFFFF;align=center;fontStyle=1;rounded=0;" vertex="1" parent="1">
                    <mxGeometry x="200" y="220" width="40" height="40" as="geometry"/>
                </mxCell>
                <mxCell id="66" value="&lt;font style=&quot;font-size: 18px&quot;&gt;A&lt;/font&gt;" style="text;html=1;fillColor=none;align=center;verticalAlign=middle;whiteSpace=wrap;rounded=0;strokeColor=#f0f0f0;fontColor=#FFFFFF;" vertex="1" parent="1">
                    <mxGeometry x="360" y="270" width="40" height="20" as="geometry"/>
                </mxCell>
                <mxCell id="67" value="&lt;span style=&quot;font-size: 18px&quot;&gt;B&lt;/span&gt;" style="text;html=1;fillColor=none;align=center;verticalAlign=middle;whiteSpace=wrap;rounded=0;strokeColor=#f0f0f0;fontColor=#FFFFFF;" vertex="1" parent="1">
                    <mxGeometry x="440" y="270" width="40" height="20" as="geometry"/>
                </mxCell>
                <mxCell id="68" value="5" style="html=1;fillColor=#10739E;strokeColor=none;shadow=0;fontSize=17;fontColor=#FFFFFF;align=center;fontStyle=1;rounded=0;" vertex="1" parent="1">
                    <mxGeometry x="440" y="175" width="40" height="40" as="geometry"/>
                </mxCell>
                <mxCell id="69" value="4" style="html=1;fillColor=#F2931E;strokeColor=none;shadow=0;fontSize=17;fontColor=#FFFFFF;align=center;fontStyle=1;rounded=0;" vertex="1" parent="1">
                    <mxGeometry x="440" y="220" width="40" height="40" as="geometry"/>
                </mxCell>
                <mxCell id="70" value="1" style="html=1;fillColor=#AE4132;strokeColor=none;shadow=0;fontSize=17;fontColor=#FFFFFF;align=center;fontStyle=1;rounded=0;" vertex="1" parent="1">
                    <mxGeometry x="360" y="130" width="40" height="40" as="geometry"/>
                </mxCell>
                <mxCell id="71" value="2" style="html=1;fillColor=#23445D;strokeColor=none;shadow=0;fontSize=17;fontColor=#FFFFFF;align=center;fontStyle=1;rounded=0;" vertex="1" parent="1">
                    <mxGeometry x="360" y="175" width="40" height="40" as="geometry"/>
                </mxCell>
                <mxCell id="72" value="3" style="html=1;fillColor=#12AAB5;strokeColor=none;shadow=0;fontSize=17;fontColor=#FFFFFF;align=center;fontStyle=1;rounded=0;" vertex="1" parent="1">
                    <mxGeometry x="360" y="220" width="40" height="40" as="geometry"/>
                </mxCell>
                <mxCell id="85" value="&lt;font style=&quot;font-size: 18px&quot;&gt;A&lt;/font&gt;" style="text;html=1;fillColor=none;align=center;verticalAlign=middle;whiteSpace=wrap;rounded=0;strokeColor=#f0f0f0;fontColor=#FFFFFF;" vertex="1" parent="1">
                    <mxGeometry x="520" y="270" width="40" height="20" as="geometry"/>
                </mxCell>
                <mxCell id="86" value="&lt;span style=&quot;font-size: 18px&quot;&gt;B&lt;/span&gt;" style="text;html=1;fillColor=none;align=center;verticalAlign=middle;whiteSpace=wrap;rounded=0;strokeColor=#f0f0f0;fontColor=#FFFFFF;" vertex="1" parent="1">
                    <mxGeometry x="600" y="270" width="40" height="20" as="geometry"/>
                </mxCell>
                <mxCell id="87" value="5" style="html=1;fillColor=#10739E;strokeColor=none;shadow=0;fontSize=17;fontColor=#FFFFFF;align=center;fontStyle=1;rounded=0;" vertex="1" parent="1">
                    <mxGeometry x="600" y="130" width="40" height="40" as="geometry"/>
                </mxCell>
                <mxCell id="88" value="4" style="html=1;fillColor=#F2931E;strokeColor=none;shadow=0;fontSize=17;fontColor=#FFFFFF;align=center;fontStyle=1;rounded=0;" vertex="1" parent="1">
                    <mxGeometry x="600" y="220" width="40" height="40" as="geometry"/>
                </mxCell>
                <mxCell id="89" value="1" style="html=1;fillColor=#AE4132;strokeColor=none;shadow=0;fontSize=17;fontColor=#FFFFFF;align=center;fontStyle=1;rounded=0;" vertex="1" parent="1">
                    <mxGeometry x="600" y="175" width="40" height="40" as="geometry"/>
                </mxCell>
                <mxCell id="90" value="2" style="html=1;fillColor=#23445D;strokeColor=none;shadow=0;fontSize=17;fontColor=#FFFFFF;align=center;fontStyle=1;rounded=0;" vertex="1" parent="1">
                    <mxGeometry x="520" y="175" width="40" height="40" as="geometry"/>
                </mxCell>
                <mxCell id="91" value="3" style="html=1;fillColor=#12AAB5;strokeColor=none;shadow=0;fontSize=17;fontColor=#FFFFFF;align=center;fontStyle=1;rounded=0;" vertex="1" parent="1">
                    <mxGeometry x="520" y="220" width="40" height="40" as="geometry"/>
                </mxCell>
                <mxCell id="92" value="&lt;font style=&quot;font-size: 18px&quot;&gt;A&lt;/font&gt;" style="text;html=1;fillColor=none;align=center;verticalAlign=middle;whiteSpace=wrap;rounded=0;strokeColor=#f0f0f0;fontColor=#FFFFFF;" vertex="1" parent="1">
                    <mxGeometry x="680" y="270" width="40" height="20" as="geometry"/>
                </mxCell>
                <mxCell id="93" value="&lt;span style=&quot;font-size: 18px&quot;&gt;B&lt;/span&gt;" style="text;html=1;fillColor=none;align=center;verticalAlign=middle;whiteSpace=wrap;rounded=0;strokeColor=#f0f0f0;fontColor=#FFFFFF;" vertex="1" parent="1">
                    <mxGeometry x="760" y="270" width="40" height="20" as="geometry"/>
                </mxCell>
                <mxCell id="94" value="5" style="html=1;fillColor=#10739E;strokeColor=none;shadow=0;fontSize=17;fontColor=#FFFFFF;align=center;fontStyle=1;rounded=0;" vertex="1" parent="1">
                    <mxGeometry x="760" y="85" width="40" height="40" as="geometry"/>
                </mxCell>
                <mxCell id="95" value="4" style="html=1;fillColor=#F2931E;strokeColor=none;shadow=0;fontSize=17;fontColor=#FFFFFF;align=center;fontStyle=1;rounded=0;" vertex="1" parent="1">
                    <mxGeometry x="760" y="220" width="40" height="40" as="geometry"/>
                </mxCell>
                <mxCell id="96" value="1" style="html=1;fillColor=#AE4132;strokeColor=none;shadow=0;fontSize=17;fontColor=#FFFFFF;align=center;fontStyle=1;rounded=0;" vertex="1" parent="1">
                    <mxGeometry x="760" y="175" width="40" height="40" as="geometry"/>
                </mxCell>
                <mxCell id="97" value="2" style="html=1;fillColor=#23445D;strokeColor=none;shadow=0;fontSize=17;fontColor=#FFFFFF;align=center;fontStyle=1;rounded=0;" vertex="1" parent="1">
                    <mxGeometry x="760" y="130" width="40" height="40" as="geometry"/>
                </mxCell>
                <mxCell id="98" value="3" style="html=1;fillColor=#12AAB5;strokeColor=none;shadow=0;fontSize=17;fontColor=#FFFFFF;align=center;fontStyle=1;rounded=0;" vertex="1" parent="1">
                    <mxGeometry x="680" y="220" width="40" height="40" as="geometry"/>
                </mxCell>
                <mxCell id="102" value="5" style="html=1;fillColor=#10739E;strokeColor=none;shadow=0;fontSize=17;fontColor=#FFFFFF;align=center;fontStyle=1;rounded=0;" vertex="1" parent="1">
                    <mxGeometry x="120" y="380" width="40" height="40" as="geometry"/>
                </mxCell>
                <mxCell id="103" value="4" style="html=1;fillColor=#F2931E;strokeColor=none;shadow=0;fontSize=17;fontColor=#FFFFFF;align=center;fontStyle=1;rounded=0;" vertex="1" parent="1">
                    <mxGeometry x="120" y="560" width="40" height="40" as="geometry"/>
                </mxCell>
                <mxCell id="104" value="1" style="html=1;fillColor=#AE4132;strokeColor=none;shadow=0;fontSize=17;fontColor=#FFFFFF;align=center;fontStyle=1;rounded=0;" vertex="1" parent="1">
                    <mxGeometry x="120" y="515" width="40" height="40" as="geometry"/>
                </mxCell>
                <mxCell id="105" value="2" style="html=1;fillColor=#23445D;strokeColor=none;shadow=0;fontSize=17;fontColor=#FFFFFF;align=center;fontStyle=1;rounded=0;" vertex="1" parent="1">
                    <mxGeometry x="120" y="470" width="40" height="40" as="geometry"/>
                </mxCell>
                <mxCell id="106" value="3" style="html=1;fillColor=#12AAB5;strokeColor=none;shadow=0;fontSize=17;fontColor=#FFFFFF;align=center;fontStyle=1;rounded=0;" vertex="1" parent="1">
                    <mxGeometry x="120" y="425" width="40" height="40" as="geometry"/>
                </mxCell>
                <mxCell id="149" value="1" style="html=1;fillColor=#AE4132;strokeColor=none;shadow=0;fontSize=17;fontColor=#FFFFFF;align=center;fontStyle=1;rounded=0;" vertex="1" parent="1">
                    <mxGeometry x="40" y="130" width="40" height="40" as="geometry"/>
                </mxCell>
                <mxCell id="150" value="2" style="html=1;fillColor=#23445D;strokeColor=none;shadow=0;fontSize=17;fontColor=#FFFFFF;align=center;fontStyle=1;rounded=0;" vertex="1" parent="1">
                    <mxGeometry x="40" y="175" width="40" height="40" as="geometry"/>
                </mxCell>
                <mxCell id="186" value="5" style="html=1;fillColor=#10739E;strokeColor=none;shadow=0;fontSize=17;fontColor=#FFFFFF;align=center;fontStyle=1;rounded=0;" vertex="1" parent="1">
                    <mxGeometry x="360" y="560" width="40" height="40" as="geometry"/>
                </mxCell>
                <mxCell id="187" value="3" style="html=1;fillColor=#12AAB5;strokeColor=none;shadow=0;fontSize=17;fontColor=#FFFFFF;align=center;fontStyle=1;rounded=0;" vertex="1" parent="1">
                    <mxGeometry x="360" y="515" width="40" height="40" as="geometry"/>
                </mxCell>
                <mxCell id="189" value="2" style="html=1;fillColor=#23445D;strokeColor=none;shadow=0;fontSize=17;fontColor=#FFFFFF;align=center;fontStyle=1;rounded=0;" vertex="1" parent="1">
                    <mxGeometry x="360" y="470" width="40" height="40" as="geometry"/>
                </mxCell>
                <mxCell id="190" value="1" style="html=1;fillColor=#AE4132;strokeColor=none;shadow=0;fontSize=17;fontColor=#FFFFFF;align=center;fontStyle=1;rounded=0;" vertex="1" parent="1">
                    <mxGeometry x="360" y="425" width="40" height="40" as="geometry"/>
                </mxCell>
                <mxCell id="191" value="4" style="html=1;fillColor=#F2931E;strokeColor=none;shadow=0;fontSize=17;fontColor=#FFFFFF;align=center;fontStyle=1;rounded=0;" vertex="1" parent="1">
                    <mxGeometry x="440" y="560" width="40" height="40" as="geometry"/>
                </mxCell>
                <mxCell id="192" value="5" style="html=1;fillColor=#10739E;strokeColor=none;shadow=0;fontSize=17;fontColor=#FFFFFF;align=center;fontStyle=1;rounded=0;" vertex="1" parent="1">
                    <mxGeometry x="520" y="560" width="40" height="40" as="geometry"/>
                </mxCell>
                <mxCell id="193" value="3" style="html=1;fillColor=#12AAB5;strokeColor=none;shadow=0;fontSize=17;fontColor=#FFFFFF;align=center;fontStyle=1;rounded=0;" vertex="1" parent="1">
                    <mxGeometry x="520" y="515" width="40" height="40" as="geometry"/>
                </mxCell>
                <mxCell id="194" value="2" style="html=1;fillColor=#23445D;strokeColor=none;shadow=0;fontSize=17;fontColor=#FFFFFF;align=center;fontStyle=1;rounded=0;" vertex="1" parent="1">
                    <mxGeometry x="520" y="470" width="40" height="40" as="geometry"/>
                </mxCell>
                <mxCell id="195" value="1" style="html=1;fillColor=#AE4132;strokeColor=none;shadow=0;fontSize=17;fontColor=#FFFFFF;align=center;fontStyle=1;rounded=0;" vertex="1" parent="1">
                    <mxGeometry x="600" y="560" width="40" height="40" as="geometry"/>
                </mxCell>
                <mxCell id="196" value="4" style="html=1;fillColor=#F2931E;strokeColor=none;shadow=0;fontSize=17;fontColor=#FFFFFF;align=center;fontStyle=1;rounded=0;" vertex="1" parent="1">
                    <mxGeometry x="600" y="515" width="40" height="40" as="geometry"/>
                </mxCell>
                <mxCell id="197" value="5" style="html=1;fillColor=#10739E;strokeColor=none;shadow=0;fontSize=17;fontColor=#FFFFFF;align=center;fontStyle=1;rounded=0;" vertex="1" parent="1">
                    <mxGeometry x="680" y="560" width="40" height="40" as="geometry"/>
                </mxCell>
                <mxCell id="198" value="3" style="html=1;fillColor=#12AAB5;strokeColor=none;shadow=0;fontSize=17;fontColor=#FFFFFF;align=center;fontStyle=1;rounded=0;" vertex="1" parent="1">
                    <mxGeometry x="680" y="515" width="40" height="40" as="geometry"/>
                </mxCell>
                <mxCell id="199" value="2" style="html=1;fillColor=#23445D;strokeColor=none;shadow=0;fontSize=17;fontColor=#FFFFFF;align=center;fontStyle=1;rounded=0;" vertex="1" parent="1">
                    <mxGeometry x="760" y="515" width="40" height="40" as="geometry"/>
                </mxCell>
                <mxCell id="200" value="1" style="html=1;fillColor=#AE4132;strokeColor=none;shadow=0;fontSize=17;fontColor=#FFFFFF;align=center;fontStyle=1;rounded=0;" vertex="1" parent="1">
                    <mxGeometry x="760" y="560" width="40" height="40" as="geometry"/>
                </mxCell>
                <mxCell id="201" value="4" style="html=1;fillColor=#F2931E;strokeColor=none;shadow=0;fontSize=17;fontColor=#FFFFFF;align=center;fontStyle=1;rounded=0;" vertex="1" parent="1">
                    <mxGeometry x="760" y="470" width="40" height="40" as="geometry"/>
                </mxCell>
                <mxCell id="202" value="5" style="html=1;fillColor=#10739E;strokeColor=none;shadow=0;fontSize=17;fontColor=#FFFFFF;align=center;fontStyle=1;rounded=0;" vertex="1" parent="1">
                    <mxGeometry x="205" y="905" width="40" height="40" as="geometry"/>
                </mxCell>
                <mxCell id="203" value="3" style="html=1;fillColor=#12AAB5;strokeColor=none;shadow=0;fontSize=17;fontColor=#FFFFFF;align=center;fontStyle=1;rounded=0;" vertex="1" parent="1">
                    <mxGeometry x="285" y="815" width="40" height="40" as="geometry"/>
                </mxCell>
                <mxCell id="204" value="2" style="html=1;fillColor=#23445D;strokeColor=none;shadow=0;fontSize=17;fontColor=#FFFFFF;align=center;fontStyle=1;rounded=0;" vertex="1" parent="1">
                    <mxGeometry x="285" y="860" width="40" height="40" as="geometry"/>
                </mxCell>
                <mxCell id="205" value="1" style="html=1;fillColor=#AE4132;strokeColor=none;shadow=0;fontSize=17;fontColor=#FFFFFF;align=center;fontStyle=1;rounded=0;" vertex="1" parent="1">
                    <mxGeometry x="285" y="905" width="40" height="40" as="geometry"/>
                </mxCell>
                <mxCell id="206" value="4" style="html=1;fillColor=#F2931E;strokeColor=none;shadow=0;fontSize=17;fontColor=#FFFFFF;align=center;fontStyle=1;rounded=0;" vertex="1" parent="1">
                    <mxGeometry x="285" y="770" width="40" height="40" as="geometry"/>
                </mxCell>
                <mxCell id="207" value="5" style="html=1;fillColor=#10739E;strokeColor=none;shadow=0;fontSize=17;fontColor=#FFFFFF;align=center;fontStyle=1;rounded=0;" vertex="1" parent="1">
                    <mxGeometry x="445" y="720" width="40" height="40" as="geometry"/>
                </mxCell>
                <mxCell id="208" value="3" style="html=1;fillColor=#12AAB5;strokeColor=none;shadow=0;fontSize=17;fontColor=#FFFFFF;align=center;fontStyle=1;rounded=0;" vertex="1" parent="1">
                    <mxGeometry x="445" y="810" width="40" height="40" as="geometry"/>
                </mxCell>
                <mxCell id="209" value="2" style="html=1;fillColor=#23445D;strokeColor=none;shadow=0;fontSize=17;fontColor=#FFFFFF;align=center;fontStyle=1;rounded=0;" vertex="1" parent="1">
                    <mxGeometry x="445" y="855" width="40" height="40" as="geometry"/>
                </mxCell>
                <mxCell id="210" value="1" style="html=1;fillColor=#AE4132;strokeColor=none;shadow=0;fontSize=17;fontColor=#FFFFFF;align=center;fontStyle=1;rounded=0;" vertex="1" parent="1">
                    <mxGeometry x="445" y="900" width="40" height="40" as="geometry"/>
                </mxCell>
                <mxCell id="211" value="4" style="html=1;fillColor=#F2931E;strokeColor=none;shadow=0;fontSize=17;fontColor=#FFFFFF;align=center;fontStyle=1;rounded=0;" vertex="1" parent="1">
                    <mxGeometry x="445" y="765" width="40" height="40" as="geometry"/>
                </mxCell>
                <mxCell id="212" value="5" style="html=1;fillColor=#10739E;strokeColor=none;shadow=0;fontSize=17;fontColor=#FFFFFF;align=center;fontStyle=1;rounded=0;" vertex="1" parent="1">
                    <mxGeometry x="525" y="900" width="40" height="40" as="geometry"/>
                </mxCell>
                <mxCell id="214" value="4" style="html=1;fillColor=#F2931E;strokeColor=none;shadow=0;fontSize=17;fontColor=#FFFFFF;align=center;fontStyle=1;rounded=0;" vertex="1" parent="1">
                    <mxGeometry x="525" y="855" width="40" height="40" as="geometry"/>
                </mxCell>
                <mxCell id="216" value="3" style="html=1;fillColor=#12AAB5;strokeColor=none;shadow=0;fontSize=17;fontColor=#FFFFFF;align=center;fontStyle=1;rounded=0;" vertex="1" parent="1">
                    <mxGeometry x="525" y="810" width="40" height="40" as="geometry"/>
                </mxCell>
                <mxCell id="217" value="2" style="html=1;fillColor=#23445D;strokeColor=none;shadow=0;fontSize=17;fontColor=#FFFFFF;align=center;fontStyle=1;rounded=0;" vertex="1" parent="1">
                    <mxGeometry x="525" y="765" width="40" height="40" as="geometry"/>
                </mxCell>
                <mxCell id="218" value="1" style="html=1;fillColor=#AE4132;strokeColor=none;shadow=0;fontSize=17;fontColor=#FFFFFF;align=center;fontStyle=1;rounded=0;" vertex="1" parent="1">
                    <mxGeometry x="525" y="720" width="40" height="40" as="geometry"/>
                </mxCell>
                <mxCell id="257" value="&lt;font style=&quot;font-size: 18px&quot;&gt;A&lt;/font&gt;" style="text;html=1;fillColor=none;align=center;verticalAlign=middle;whiteSpace=wrap;rounded=0;strokeColor=#f0f0f0;fontColor=#FFFFFF;" vertex="1" parent="1">
                    <mxGeometry x="40" y="610" width="40" height="20" as="geometry"/>
                </mxCell>
                <mxCell id="258" value="&lt;span style=&quot;font-size: 18px&quot;&gt;B&lt;/span&gt;" style="text;html=1;fillColor=none;align=center;verticalAlign=middle;whiteSpace=wrap;rounded=0;strokeColor=#f0f0f0;fontColor=#FFFFFF;" vertex="1" parent="1">
                    <mxGeometry x="120" y="610" width="40" height="20" as="geometry"/>
                </mxCell>
                <mxCell id="259" value="&lt;font style=&quot;font-size: 18px&quot;&gt;A&lt;/font&gt;" style="text;html=1;fillColor=none;align=center;verticalAlign=middle;whiteSpace=wrap;rounded=0;strokeColor=#f0f0f0;fontColor=#FFFFFF;" vertex="1" parent="1">
                    <mxGeometry x="360" y="610" width="40" height="20" as="geometry"/>
                </mxCell>
                <mxCell id="260" value="&lt;span style=&quot;font-size: 18px&quot;&gt;B&lt;/span&gt;" style="text;html=1;fillColor=none;align=center;verticalAlign=middle;whiteSpace=wrap;rounded=0;strokeColor=#f0f0f0;fontColor=#FFFFFF;" vertex="1" parent="1">
                    <mxGeometry x="440" y="610" width="40" height="20" as="geometry"/>
                </mxCell>
                <mxCell id="261" value="&lt;font style=&quot;font-size: 18px&quot;&gt;A&lt;/font&gt;" style="text;html=1;fillColor=none;align=center;verticalAlign=middle;whiteSpace=wrap;rounded=0;strokeColor=#f0f0f0;fontColor=#FFFFFF;" vertex="1" parent="1">
                    <mxGeometry x="520" y="610" width="40" height="20" as="geometry"/>
                </mxCell>
                <mxCell id="262" value="&lt;span style=&quot;font-size: 18px&quot;&gt;B&lt;/span&gt;" style="text;html=1;fillColor=none;align=center;verticalAlign=middle;whiteSpace=wrap;rounded=0;strokeColor=#f0f0f0;fontColor=#FFFFFF;" vertex="1" parent="1">
                    <mxGeometry x="600" y="610" width="40" height="20" as="geometry"/>
                </mxCell>
                <mxCell id="263" value="&lt;font style=&quot;font-size: 18px&quot;&gt;A&lt;/font&gt;" style="text;html=1;fillColor=none;align=center;verticalAlign=middle;whiteSpace=wrap;rounded=0;strokeColor=#f0f0f0;fontColor=#FFFFFF;" vertex="1" parent="1">
                    <mxGeometry x="680" y="610" width="40" height="20" as="geometry"/>
                </mxCell>
                <mxCell id="264" value="&lt;span style=&quot;font-size: 18px&quot;&gt;B&lt;/span&gt;" style="text;html=1;fillColor=none;align=center;verticalAlign=middle;whiteSpace=wrap;rounded=0;strokeColor=#f0f0f0;fontColor=#FFFFFF;" vertex="1" parent="1">
                    <mxGeometry x="760" y="610" width="40" height="20" as="geometry"/>
                </mxCell>
                <mxCell id="265" value="&lt;font style=&quot;font-size: 18px&quot;&gt;A&lt;/font&gt;" style="text;html=1;fillColor=none;align=center;verticalAlign=middle;whiteSpace=wrap;rounded=0;strokeColor=#f0f0f0;fontColor=#FFFFFF;" vertex="1" parent="1">
                    <mxGeometry x="205" y="955" width="40" height="20" as="geometry"/>
                </mxCell>
                <mxCell id="266" value="&lt;span style=&quot;font-size: 18px&quot;&gt;B&lt;/span&gt;" style="text;html=1;fillColor=none;align=center;verticalAlign=middle;whiteSpace=wrap;rounded=0;strokeColor=#f0f0f0;fontColor=#FFFFFF;" vertex="1" parent="1">
                    <mxGeometry x="285" y="955" width="40" height="20" as="geometry"/>
                </mxCell>
                <mxCell id="282" value="" style="rounded=0;whiteSpace=wrap;html=1;rotation=90;fillColor=#333333;strokeColor=#666666;" vertex="1" parent="1">
                    <mxGeometry x="120" y="430" width="280" height="140" as="geometry"/>
                </mxCell>
                <mxCell id="283" value="5" style="html=1;fillColor=#10739E;strokeColor=none;shadow=0;fontSize=17;fontColor=#FFFFFF;align=center;fontStyle=1;rounded=0;" vertex="1" parent="1">
                    <mxGeometry x="200" y="560" width="40" height="40" as="geometry"/>
                </mxCell>
                <mxCell id="284" value="4" style="html=1;fillColor=#F2931E;strokeColor=none;shadow=0;fontSize=17;fontColor=#FFFFFF;align=center;fontStyle=1;rounded=0;" vertex="1" parent="1">
                    <mxGeometry x="200" y="380" width="40" height="40" as="geometry"/>
                </mxCell>
                <mxCell id="285" value="1" style="html=1;fillColor=#AE4132;strokeColor=none;shadow=0;fontSize=17;fontColor=#FFFFFF;align=center;fontStyle=1;rounded=0;" vertex="1" parent="1">
                    <mxGeometry x="200" y="425" width="40" height="40" as="geometry"/>
                </mxCell>
                <mxCell id="286" value="2" style="html=1;fillColor=#23445D;strokeColor=none;shadow=0;fontSize=17;fontColor=#FFFFFF;align=center;fontStyle=1;rounded=0;" vertex="1" parent="1">
                    <mxGeometry x="200" y="470" width="40" height="40" as="geometry"/>
                </mxCell>
                <mxCell id="287" value="3" style="html=1;fillColor=#12AAB5;strokeColor=none;shadow=0;fontSize=17;fontColor=#FFFFFF;align=center;fontStyle=1;rounded=0;" vertex="1" parent="1">
                    <mxGeometry x="200" y="515" width="40" height="40" as="geometry"/>
                </mxCell>
                <mxCell id="288" value="&lt;font style=&quot;font-size: 18px&quot;&gt;A&lt;/font&gt;" style="text;html=1;fillColor=none;align=center;verticalAlign=middle;whiteSpace=wrap;rounded=0;strokeColor=#f0f0f0;fontColor=#FFFFFF;" vertex="1" parent="1">
                    <mxGeometry x="200" y="610" width="40" height="20" as="geometry"/>
                </mxCell>
                <mxCell id="289" value="&lt;span style=&quot;font-size: 18px&quot;&gt;B&lt;/span&gt;" style="text;html=1;fillColor=none;align=center;verticalAlign=middle;whiteSpace=wrap;rounded=0;strokeColor=#f0f0f0;fontColor=#FFFFFF;" vertex="1" parent="1">
                    <mxGeometry x="280" y="610" width="40" height="20" as="geometry"/>
                </mxCell>
            </root>
        </mxGraphModel>
    </diagram>
</mxfile>